<?xml version="1.0" encoding="UTF-8"?>
<svg width="303px" height="54px" viewBox="0 0 303 54" version="1.1" xmlns="http://www.w3.org/2000/svg" xmlns:xlink="http://www.w3.org/1999/xlink">
    <!-- Generator: Sketch 40.3 (33839) - http://www.bohemiancoding.com/sketch -->
    <title>logo_seafoam</title>
    <desc>Created with Sketch.</desc>
    <defs></defs>
    <g id="Page-1" stroke="none" stroke-width="1" fill="none" fill-rule="evenodd">
        <g id="seafoam" transform="translate(0.000000, -23.000000)" fill="#00A98F">
            <path d="M25.3434014,75.6323327 L25.3434014,71.5047429 C22.5366403,74.8068147 18.0788433,76.6229542 13.0431838,76.6229542 C6.93435087,76.6229542 -3.55271368e-15,72.4128126 -3.55271368e-15,64.0750812 C-3.55271368e-15,55.3245908 6.85179907,51.6923118 13.0431838,51.6923118 C18.2439469,51.6923118 22.5366403,53.3433477 25.3434014,56.5628678 L25.3434014,50.9493457 C25.3434014,46.5741005 21.6285706,43.932443 16.5103592,43.932443 C12.3002176,43.932443 8.50283499,45.5009271 5.28331495,48.802999 L1.81613951,43.106925 C6.1913847,38.8967834 11.722355,36.9980921 17.7486361,36.9980921 C26.1689193,36.9980921 33.598581,40.5478194 33.598581,50.6191385 L33.598581,75.7148845 L25.3434014,75.6323327 Z M25.3434014,66.9643941 L25.3434014,61.1857684 C23.3621583,58.6266627 19.8949828,57.3058339 16.3452556,57.3058339 C11.722355,57.3058339 8.17262781,60.0300432 8.17262781,64.157633 C8.17262781,68.2852228 11.722355,71.0094321 16.3452556,71.0094321 C19.8949828,70.9268803 23.4447101,69.6060516 25.3434014,66.9643941 Z M38.9644477,75.6323327 L38.9644477,23.3770458 L47.2196273,23.3770458 L47.2196273,43.0243732 C50.2740438,38.9793352 54.649289,36.8329885 59.3547413,36.8329885 C69.1784051,36.8329885 76.1953077,44.4277538 76.1953077,56.6454196 C76.1953077,69.1932926 69.0958533,76.5404024 59.3547413,76.5404024 C54.4841854,76.5404024 50.1089402,74.2289521 47.2196273,70.4315695 L47.2196273,75.6323327 L38.9644477,75.6323327 Z M56.9607393,69.2758444 C63.4823311,69.2758444 67.6099209,63.9925294 67.6099209,56.6454196 C67.6099209,49.3808615 63.4823311,44.0975466 56.9607393,44.0975466 C53.0808048,44.0975466 49.0357668,46.3264451 47.1370755,49.2157579 L47.1370755,64.2401848 C49.0357668,67.0469459 52.998253,69.2758444 56.9607393,69.2758444 Z M80.6531047,56.6454196 C80.6531047,45.7485825 88.0002146,36.8329885 100.052777,36.8329885 C112.105339,36.8329885 119.452449,45.7485825 119.452449,56.6454196 C119.452449,67.4597049 112.105339,76.5404024 100.052777,76.5404024 C88.0002146,76.5404024 80.6531047,67.4597049 80.6531047,56.6454196 Z M110.949614,56.6454196 C110.949614,49.9587241 107.152231,44.0975466 100.052777,44.0975466 C93.1184259,44.0975466 89.1559397,49.9587241 89.1559397,56.6454196 C89.1559397,63.4146669 93.0358741,69.2758444 100.052777,69.2758444 C107.069679,69.2758444 110.949614,63.4146669 110.949614,56.6454196 Z M149.583854,75.6323327 L149.583854,70.5966731 C146.942197,73.5685378 142.236745,76.5404024 136.293015,76.5404024 C128.120387,76.5404024 124.075349,72.247709 124.075349,64.570392 L124.075349,37.8236101 L132.330529,37.8236101 L132.330529,61.5159755 C132.330529,67.3771531 135.302394,69.2758444 140.007846,69.2758444 C144.135436,69.2758444 147.767715,66.8818423 149.666406,64.3227366 L149.666406,37.8236101 L157.921586,37.8236101 L157.921586,75.6323327 L149.583854,75.6323327 Z M169.396285,66.7992905 L169.396285,44.9230645 L163.122349,44.9230645 L163.122349,37.8236101 L169.396285,37.8236101 L169.396285,27.4220838 L177.651465,27.4220838 L177.651465,37.8236101 L185.328782,37.8236101 L185.328782,44.9230645 L177.651465,44.9230645 L177.651465,64.7354956 C177.651465,67.2946013 178.889742,69.2758444 181.283744,69.2758444 C182.852228,69.2758444 184.255609,68.5328782 184.916023,67.8724638 L186.897266,74.1464003 C185.411334,75.4672291 183.017332,76.5404024 179.219949,76.5404024 C172.698357,76.5404024 169.396285,73.073227 169.396285,66.7992905 Z M190.777201,70.9268803 C190.777201,68.0375674 193.253754,65.5610135 196.225619,65.5610135 C199.197484,65.5610135 201.674038,68.0375674 201.674038,70.9268803 C201.674038,73.8987449 199.197484,76.4578506 196.225619,76.4578506 C193.253754,76.4578506 190.777201,73.8987449 190.777201,70.9268803 Z M252.278289,75.6323327 L252.278289,50.9493457 C252.278289,46.9043076 250.462149,44.0975466 246.004352,44.0975466 C242.289521,44.0975466 238.904898,46.5741005 237.253862,49.1332061 L237.253862,75.6323327 L228.998682,75.6323327 L228.998682,50.9493457 C228.998682,46.9043076 227.265094,44.0975466 222.807297,44.0975466 C219.092467,44.0975466 215.790395,46.6566523 214.056807,49.1332061 L214.056807,75.6323327 L205.801627,75.6323327 L205.801627,37.8236101 L214.056807,37.8236101 L214.056807,42.9418214 C215.707843,40.6303712 220.660951,36.9155403 226.439576,36.9155403 C232.053099,36.9155403 235.520274,39.7223014 236.758551,43.7673394 C238.904898,40.3827158 243.858005,36.9155403 249.636631,36.9155403 C256.48843,36.9155403 260.533468,40.7129229 260.533468,48.3076882 L260.533468,75.6323327 L252.278289,75.6323327 Z M265.073817,56.6454196 C265.073817,45.6660307 273.081341,36.8329885 284.225834,36.8329885 C295.617982,36.8329885 302.799988,45.4183753 302.799988,57.3058339 L302.799988,59.3696288 L273.659204,59.3696288 C274.319618,64.983151 278.52976,69.7711551 285.629214,69.7711551 C289.426597,69.7711551 293.71929,68.2852228 296.443499,65.5610135 L300.240882,70.9268803 C296.443499,74.5591593 290.829977,76.4578506 284.886248,76.4578506 C273.4941,76.5404024 265.073817,68.61543 265.073817,56.6454196 Z M284.225834,43.6022358 C277.291483,43.6022358 273.989411,48.9681025 273.659204,53.5084513 L294.957567,53.5084513 C294.709912,49.0506543 291.655495,43.6022358 284.225834,43.6022358 Z" id="logo_seafoam"></path>
        </g>
    </g>
</svg>