<?xml version="1.0" encoding="UTF-8"?>
<svg width="304px" height="54px" viewBox="0 0 304 54" version="1.1" xmlns="http://www.w3.org/2000/svg" xmlns:xlink="http://www.w3.org/1999/xlink">
    <!-- Generator: Sketch 40.3 (33839) - http://www.bohemiancoding.com/sketch -->
    <title>logo_white</title>
    <desc>Created with Sketch.</desc>
    <defs></defs>
    <g id="Page-1" stroke="none" stroke-width="1" fill="none" fill-rule="evenodd">
        <g id="white_on_seafoam" transform="translate(-48.000000, -23.000000)" fill="#FFFFFF">
            <g id="White-on-seafoam">
                <path d="M73.9429688,75.6324219 L73.9429688,71.5048177 C71.1361979,74.806901 66.6783854,76.6230469 61.6427083,76.6230469 C55.5338542,76.6230469 48.5994792,72.4128906 48.5994792,64.0751302 C48.5994792,55.3246094 55.4513021,51.6923177 61.6427083,51.6923177 C66.8434896,51.6923177 71.1361979,53.3433594 73.9429688,56.5628906 L73.9429688,50.949349 C73.9429688,46.5740885 70.228125,43.9324219 65.1098958,43.9324219 C60.8997396,43.9324219 57.1023438,45.5009115 53.8828125,48.8029948 L50.415625,43.106901 C54.7908854,38.8967448 60.321875,36.9980469 66.3481771,36.9980469 C74.7684896,36.9980469 82.1981771,40.5477865 82.1981771,50.6191406 L82.1981771,75.714974 L73.9429688,75.6324219 Z M73.9429687,66.9644531 L73.9429687,61.1858073 C71.9617187,58.6266927 68.4945312,57.3058594 64.9447917,57.3058594 C60.321875,57.3058594 56.7721354,60.0300781 56.7721354,64.1576823 C56.7721354,68.2852865 60.321875,71.0095052 64.9447917,71.0095052 C68.4945312,70.9269531 72.0442708,69.6061198 73.9429687,66.9644531 Z M87.5640625,75.6324219 L87.5640625,23.3769531 L95.8192708,23.3769531 L95.8192708,43.024349 C98.8736979,38.9792969 103.248958,36.8329427 107.954427,36.8329427 C117.778125,36.8329427 124.795052,44.4277344 124.795052,56.6454427 C124.795052,69.1933594 117.695573,76.5404948 107.954427,76.5404948 C103.083854,76.5404948 98.7085937,74.2290365 95.8192708,70.4316406 L95.8192708,75.6324219 L87.5640625,75.6324219 Z M105.560417,69.2759115 C112.082031,69.2759115 116.209635,63.9925781 116.209635,56.6454427 C116.209635,49.3808594 112.082031,44.097526 105.560417,44.097526 C101.680469,44.097526 97.6354167,46.3264323 95.7367187,49.2157552 L95.7367187,64.2402344 C97.6354167,67.0470052 101.597917,69.2759115 105.560417,69.2759115 Z M129.252865,56.6454427 C129.252865,45.7485677 136.6,36.8329427 148.652604,36.8329427 C160.705208,36.8329427 168.052344,45.7485677 168.052344,56.6454427 C168.052344,67.4597656 160.705208,76.5404948 148.652604,76.5404948 C136.6,76.5404948 129.252865,67.4597656 129.252865,56.6454427 Z M159.549479,56.6454427 C159.549479,49.958724 155.752083,44.097526 148.652604,44.097526 C141.718229,44.097526 137.755729,49.958724 137.755729,56.6454427 C137.755729,63.4147135 141.635677,69.2759115 148.652604,69.2759115 C155.669531,69.2759115 159.549479,63.4147135 159.549479,56.6454427 Z M198.183854,75.6324219 L198.183854,70.5967448 C195.542187,73.5686198 190.836719,76.5404948 184.892969,76.5404948 C176.720312,76.5404948 172.67526,72.2477865 172.67526,64.5704427 L172.67526,37.8235677 L180.930469,37.8235677 L180.930469,61.5160156 C180.930469,67.3772135 183.902344,69.2759115 188.607812,69.2759115 C192.735417,69.2759115 196.367708,66.881901 198.266406,64.3227865 L198.266406,37.8235677 L206.521615,37.8235677 L206.521615,75.6324219 L198.183854,75.6324219 Z M217.996354,66.799349 L217.996354,44.9230469 L211.722396,44.9230469 L211.722396,37.8235677 L217.996354,37.8235677 L217.996354,27.4220052 L226.251562,27.4220052 L226.251562,37.8235677 L233.928906,37.8235677 L233.928906,44.9230469 L226.251562,44.9230469 L226.251562,64.7355469 C226.251562,67.2946615 227.489844,69.2759115 229.883854,69.2759115 C231.452344,69.2759115 232.855729,68.5329427 233.516146,67.872526 L235.497396,74.1464844 C234.011458,75.4673177 231.617448,76.5404948 227.820052,76.5404948 C221.298437,76.5404948 217.996354,73.0733073 217.996354,66.799349 Z M239.377344,70.9269531 C239.377344,68.0376302 241.853906,65.5610677 244.825781,65.5610677 C247.797656,65.5610677 250.274219,68.0376302 250.274219,70.9269531 C250.274219,73.8988281 247.797656,76.4579427 244.825781,76.4579427 C241.853906,76.4579427 239.377344,73.8988281 239.377344,70.9269531 Z M300.878646,75.6324219 L300.878646,50.949349 C300.878646,46.9042969 299.0625,44.097526 294.604687,44.097526 C290.889844,44.097526 287.505208,46.5740885 285.854167,49.1332031 L285.854167,75.6324219 L277.598958,75.6324219 L277.598958,50.949349 C277.598958,46.9042969 275.865365,44.097526 271.407552,44.097526 C267.692708,44.097526 264.390625,46.6566406 262.657031,49.1332031 L262.657031,75.6324219 L254.401823,75.6324219 L254.401823,37.8235677 L262.657031,37.8235677 L262.657031,42.9417969 C264.308073,40.6303385 269.261198,36.9154948 275.039844,36.9154948 C280.653385,36.9154948 284.120573,39.7222656 285.358854,43.7673177 C287.505208,40.3826823 292.458333,36.9154948 298.236979,36.9154948 C305.088802,36.9154948 309.133854,40.7128906 309.133854,48.3076823 L309.133854,75.6324219 L300.878646,75.6324219 Z M313.674219,56.6454427 C313.674219,45.6660156 321.681771,36.8329427 332.826302,36.8329427 C344.21849,36.8329427 351.400521,45.4183594 351.400521,57.3058594 L351.400521,59.3696615 L322.259635,59.3696615 C322.920052,64.9832031 327.130208,69.771224 334.229687,69.771224 C338.027083,69.771224 342.319792,68.2852865 345.04401,65.5610677 L348.841406,70.9269531 C345.04401,74.5592448 339.430469,76.4579427 333.486719,76.4579427 C322.094531,76.5404948 313.674219,68.6154948 313.674219,56.6454427 Z M332.826302,43.6022135 C325.891927,43.6022135 322.589844,48.968099 322.259635,53.5084635 L343.558073,53.5084635 C343.310417,49.050651 340.25599,43.6022135 332.826302,43.6022135 Z" id="logo_white"></path>
            </g>
        </g>
    </g>
</svg>